<svg width="365" height="16" viewBox="0 0 365 16" fill="none" xmlns="http://www.w3.org/2000/svg">
<g clip-path="url(#clip0_4184_255)">
<path fill-rule="evenodd" clip-rule="evenodd" d="M8.00004 1.83337C4.59428 1.83337 1.83337 4.59428 1.83337 8.00004C1.83337 11.4058 4.59428 14.1667 8.00004 14.1667C11.4058 14.1667 14.1667 11.4058 14.1667 8.00004C14.1667 4.59428 11.4058 1.83337 8.00004 1.83337ZM0.833374 8.00004C0.833374 4.042 4.042 0.833374 8.00004 0.833374C11.9581 0.833374 15.1667 4.042 15.1667 8.00004C15.1667 11.9581 11.9581 15.1667 8.00004 15.1667C4.042 15.1667 0.833374 11.9581 0.833374 8.00004ZM8.00004 4.83337C8.27618 4.83337 8.50004 5.05723 8.50004 5.33337V8.00004C8.50004 8.27618 8.27618 8.50004 8.00004 8.50004C7.7239 8.50004 7.50004 8.27618 7.50004 8.00004V5.33337C7.50004 5.05723 7.7239 4.83337 8.00004 4.83337ZM7.50004 10.6667C7.50004 10.3906 7.7239 10.1667 8.00004 10.1667H8.00671C8.28285 10.1667 8.50671 10.3906 8.50671 10.6667C8.50671 10.9428 8.28285 11.1667 8.00671 11.1667H8.00004C7.7239 11.1667 7.50004 10.9428 7.50004 10.6667Z" fill="#FF5959"/>
</g>
<path d="M28.834 5.18945C28.3613 5.18945 27.9355 5.27148 27.5566 5.43555C27.1816 5.5957 26.8613 5.83008 26.5957 6.13867C26.334 6.44336 26.1328 6.8125 25.9922 7.24609C25.8516 7.67969 25.7812 8.16797 25.7812 8.71094C25.7812 9.42969 25.8926 10.0547 26.1152 10.5859C26.3418 11.1133 26.6777 11.5215 27.123 11.8105C27.5723 12.0996 28.1328 12.2441 28.8047 12.2441C29.1875 12.2441 29.5469 12.2129 29.8828 12.1504C30.2227 12.084 30.5527 12.002 30.873 11.9043V12.7715C30.5605 12.8887 30.2324 12.9746 29.8887 13.0293C29.5449 13.0879 29.1367 13.1172 28.6641 13.1172C27.793 13.1172 27.0645 12.9375 26.4785 12.5781C25.8965 12.2148 25.459 11.7031 25.166 11.043C24.877 10.3828 24.7324 9.60352 24.7324 8.70508C24.7324 8.05664 24.8223 7.46484 25.002 6.92969C25.1855 6.39062 25.4512 5.92578 25.7988 5.53516C26.1504 5.14453 26.5801 4.84375 27.0879 4.63281C27.5996 4.41797 28.1855 4.31055 28.8457 4.31055C29.2793 4.31055 29.6973 4.35352 30.0996 4.43945C30.502 4.52539 30.8652 4.64844 31.1895 4.80859L30.791 5.65234C30.5176 5.52734 30.2168 5.41992 29.8887 5.33008C29.5645 5.23633 29.2129 5.18945 28.834 5.18945ZM34.9863 6.47266C35.752 6.47266 36.3203 6.64453 36.6914 6.98828C37.0625 7.33203 37.248 7.88086 37.248 8.63477V13H36.5391L36.3516 12.0508H36.3047C36.125 12.2852 35.9375 12.4824 35.7422 12.6426C35.5469 12.7988 35.3203 12.918 35.0625 13C34.8086 13.0781 34.4961 13.1172 34.125 13.1172C33.7344 13.1172 33.3867 13.0488 33.082 12.9121C32.7812 12.7754 32.543 12.5684 32.3672 12.291C32.1953 12.0137 32.1094 11.6621 32.1094 11.2363C32.1094 10.5957 32.3633 10.1035 32.8711 9.75977C33.3789 9.41602 34.1523 9.22852 35.1914 9.19727L36.2988 9.15039V8.75781C36.2988 8.20312 36.1797 7.81445 35.9414 7.5918C35.7031 7.36914 35.3672 7.25781 34.9336 7.25781C34.5977 7.25781 34.2773 7.30664 33.9727 7.4043C33.668 7.50195 33.3789 7.61719 33.1055 7.75L32.8066 7.01172C33.0957 6.86328 33.4277 6.73633 33.8027 6.63086C34.1777 6.52539 34.5723 6.47266 34.9863 6.47266ZM36.2871 9.83594L35.3086 9.87695C34.5078 9.9082 33.9434 10.0391 33.6152 10.2695C33.2871 10.5 33.123 10.8262 33.123 11.248C33.123 11.6152 33.2344 11.8867 33.457 12.0625C33.6797 12.2383 33.9746 12.3262 34.3418 12.3262C34.9121 12.3262 35.3789 12.168 35.7422 11.8516C36.1055 11.5352 36.2871 11.0605 36.2871 10.4277V9.83594ZM46.2246 6.46094C46.9316 6.46094 47.4648 6.64648 47.8242 7.01758C48.1836 7.38477 48.3633 7.97656 48.3633 8.79297V13H47.4023V8.83984C47.4023 8.32031 47.2891 7.93164 47.0625 7.67383C46.8398 7.41211 46.5078 7.28125 46.0664 7.28125C45.4453 7.28125 44.9941 7.46094 44.7129 7.82031C44.4316 8.17969 44.291 8.70898 44.291 9.4082V13H43.3242V8.83984C43.3242 8.49219 43.2734 8.20312 43.1719 7.97266C43.0742 7.74219 42.9258 7.57031 42.7266 7.45703C42.5312 7.33984 42.2832 7.28125 41.9824 7.28125C41.5566 7.28125 41.2148 7.36914 40.957 7.54492C40.6992 7.7207 40.5117 7.98242 40.3945 8.33008C40.2812 8.67383 40.2246 9.09766 40.2246 9.60156V13H39.252V6.57812H40.0371L40.1836 7.48633H40.2363C40.3652 7.26367 40.5273 7.07617 40.7227 6.92383C40.918 6.77148 41.1367 6.65625 41.3789 6.57812C41.6211 6.5 41.8789 6.46094 42.1523 6.46094C42.6406 6.46094 43.0488 6.55273 43.377 6.73633C43.709 6.91602 43.9492 7.19141 44.0977 7.5625H44.1504C44.3613 7.19141 44.6504 6.91602 45.0176 6.73633C45.3848 6.55273 45.7871 6.46094 46.2246 6.46094ZM53.3789 6.46094C54.1797 6.46094 54.8184 6.73633 55.2949 7.28711C55.7715 7.83789 56.0098 8.66602 56.0098 9.77148C56.0098 10.502 55.9004 11.1152 55.6816 11.6113C55.4629 12.1074 55.1543 12.4824 54.7559 12.7363C54.3613 12.9902 53.8945 13.1172 53.3555 13.1172C53.0156 13.1172 52.7168 13.0723 52.459 12.9824C52.2012 12.8926 51.9805 12.7715 51.7969 12.6191C51.6133 12.4668 51.4609 12.3008 51.3398 12.1211H51.2695C51.2812 12.2734 51.2949 12.457 51.3105 12.6719C51.3301 12.8867 51.3398 13.0742 51.3398 13.2344V15.8711H50.3613V6.57812H51.1641L51.293 7.52734H51.3398C51.4648 7.33203 51.6172 7.1543 51.7969 6.99414C51.9766 6.83008 52.1953 6.70117 52.4531 6.60742C52.7148 6.50977 53.0234 6.46094 53.3789 6.46094ZM53.209 7.28125C52.7637 7.28125 52.4043 7.36719 52.1309 7.53906C51.8613 7.71094 51.6641 7.96875 51.5391 8.3125C51.4141 8.65234 51.3477 9.08008 51.3398 9.5957V9.7832C51.3398 10.3262 51.3984 10.7852 51.5156 11.1602C51.6367 11.5352 51.834 11.8203 52.1074 12.0156C52.3848 12.2109 52.7559 12.3086 53.2207 12.3086C53.6191 12.3086 53.9512 12.2012 54.2168 11.9863C54.4824 11.7715 54.6797 11.4727 54.8086 11.0898C54.9414 10.7031 55.0078 10.2598 55.0078 9.75977C55.0078 9.00195 54.8594 8.40039 54.5625 7.95508C54.2695 7.50586 53.8184 7.28125 53.209 7.28125ZM63.2461 9.77734C63.2461 10.3047 63.1777 10.7754 63.041 11.1895C62.9043 11.6035 62.707 11.9531 62.4492 12.2383C62.1914 12.5234 61.8789 12.7422 61.5117 12.8945C61.1484 13.043 60.7363 13.1172 60.2754 13.1172C59.8457 13.1172 59.4512 13.043 59.0918 12.8945C58.7363 12.7422 58.4277 12.5234 58.166 12.2383C57.9082 11.9531 57.707 11.6035 57.5625 11.1895C57.4219 10.7754 57.3516 10.3047 57.3516 9.77734C57.3516 9.07422 57.4707 8.47656 57.709 7.98438C57.9473 7.48828 58.2871 7.11133 58.7285 6.85352C59.1738 6.5918 59.7031 6.46094 60.3164 6.46094C60.9023 6.46094 61.4141 6.5918 61.8516 6.85352C62.293 7.11523 62.6348 7.49414 62.877 7.99023C63.123 8.48242 63.2461 9.07812 63.2461 9.77734ZM58.3594 9.77734C58.3594 10.293 58.4277 10.7402 58.5645 11.1191C58.7012 11.498 58.9121 11.791 59.1973 11.998C59.4824 12.2051 59.8496 12.3086 60.2988 12.3086C60.7441 12.3086 61.1094 12.2051 61.3945 11.998C61.6836 11.791 61.8965 11.498 62.0332 11.1191C62.1699 10.7402 62.2383 10.293 62.2383 9.77734C62.2383 9.26562 62.1699 8.82422 62.0332 8.45312C61.8965 8.07812 61.6855 7.78906 61.4004 7.58594C61.1152 7.38281 60.7461 7.28125 60.293 7.28125C59.625 7.28125 59.1348 7.50195 58.8223 7.94336C58.5137 8.38477 58.3594 8.99609 58.3594 9.77734ZM73.582 9.77734C73.582 10.3047 73.5137 10.7754 73.377 11.1895C73.2402 11.6035 73.043 11.9531 72.7852 12.2383C72.5273 12.5234 72.2148 12.7422 71.8477 12.8945C71.4844 13.043 71.0723 13.1172 70.6113 13.1172C70.1816 13.1172 69.7871 13.043 69.4277 12.8945C69.0723 12.7422 68.7637 12.5234 68.502 12.2383C68.2441 11.9531 68.043 11.6035 67.8984 11.1895C67.7578 10.7754 67.6875 10.3047 67.6875 9.77734C67.6875 9.07422 67.8066 8.47656 68.0449 7.98438C68.2832 7.48828 68.623 7.11133 69.0645 6.85352C69.5098 6.5918 70.0391 6.46094 70.6523 6.46094C71.2383 6.46094 71.75 6.5918 72.1875 6.85352C72.6289 7.11523 72.9707 7.49414 73.2129 7.99023C73.459 8.48242 73.582 9.07812 73.582 9.77734ZM68.6953 9.77734C68.6953 10.293 68.7637 10.7402 68.9004 11.1191C69.0371 11.498 69.248 11.791 69.5332 11.998C69.8184 12.2051 70.1855 12.3086 70.6348 12.3086C71.0801 12.3086 71.4453 12.2051 71.7305 11.998C72.0195 11.791 72.2324 11.498 72.3691 11.1191C72.5059 10.7402 72.5742 10.293 72.5742 9.77734C72.5742 9.26562 72.5059 8.82422 72.3691 8.45312C72.2324 8.07812 72.0215 7.78906 71.7363 7.58594C71.4512 7.38281 71.082 7.28125 70.6289 7.28125C69.9609 7.28125 69.4707 7.50195 69.1582 7.94336C68.8496 8.38477 68.6953 8.99609 68.6953 9.77734ZM76.2363 3.88281V6.16211C76.2363 6.42383 76.2285 6.67773 76.2129 6.92383C76.2012 7.16992 76.1914 7.36133 76.1836 7.49805H76.2363C76.4121 7.20898 76.666 6.96484 76.998 6.76562C77.3301 6.56641 77.7539 6.4668 78.2695 6.4668C79.0742 6.4668 79.7148 6.74609 80.1914 7.30469C80.6719 7.85938 80.9121 8.68555 80.9121 9.7832C80.9121 10.5059 80.8027 11.1152 80.584 11.6113C80.3652 12.1074 80.0566 12.4824 79.6582 12.7363C79.2598 12.9902 78.7891 13.1172 78.2461 13.1172C77.7383 13.1172 77.3203 13.0234 76.9922 12.8359C76.668 12.6445 76.418 12.4121 76.2422 12.1387H76.166L75.9668 13H75.2637V3.88281H76.2363ZM78.1113 7.28125C77.6465 7.28125 77.2773 7.37305 77.0039 7.55664C76.7305 7.73633 76.5332 8.00977 76.4121 8.37695C76.2949 8.74023 76.2363 9.20117 76.2363 9.75977V9.8125C76.2363 10.6211 76.3711 11.2402 76.6406 11.6699C76.9102 12.0957 77.4004 12.3086 78.1113 12.3086C78.709 12.3086 79.1562 12.0898 79.4531 11.6523C79.7539 11.2148 79.9043 10.5898 79.9043 9.77734C79.9043 8.94922 79.7559 8.32617 79.459 7.9082C79.166 7.49023 78.7168 7.28125 78.1113 7.28125ZM85.5293 6.46094C85.6582 6.46094 85.793 6.46875 85.9336 6.48438C86.0742 6.49609 86.1992 6.51367 86.3086 6.53711L86.1855 7.43945C86.0801 7.41211 85.9629 7.39062 85.834 7.375C85.7051 7.35938 85.584 7.35156 85.4707 7.35156C85.2129 7.35156 84.9688 7.4043 84.7383 7.50977C84.5117 7.61133 84.3125 7.75977 84.1406 7.95508C83.9688 8.14648 83.834 8.37891 83.7363 8.65234C83.6387 8.92188 83.5898 9.22266 83.5898 9.55469V13H82.6113V6.57812H83.4199L83.5254 7.76172H83.5664C83.6992 7.52344 83.8594 7.30664 84.0469 7.11133C84.2344 6.91211 84.4512 6.75391 84.6973 6.63672C84.9473 6.51953 85.2246 6.46094 85.5293 6.46094ZM88.4941 6.57812V13H87.5215V6.57812H88.4941ZM88.0195 4.17578C88.1797 4.17578 88.3164 4.22852 88.4297 4.33398C88.5469 4.43555 88.6055 4.5957 88.6055 4.81445C88.6055 5.0293 88.5469 5.18945 88.4297 5.29492C88.3164 5.40039 88.1797 5.45312 88.0195 5.45312C87.8516 5.45312 87.7109 5.40039 87.5977 5.29492C87.4883 5.18945 87.4336 5.0293 87.4336 4.81445C87.4336 4.5957 87.4883 4.43555 87.5977 4.33398C87.7109 4.22852 87.8516 4.17578 88.0195 4.17578ZM92.3496 15.8828C91.5059 15.8828 90.8555 15.7246 90.3984 15.4082C89.9414 15.0957 89.7129 14.6562 89.7129 14.0898C89.7129 13.6875 89.8398 13.3438 90.0938 13.0586C90.3516 12.7734 90.707 12.584 91.1602 12.4902C90.9922 12.4121 90.8477 12.2949 90.7266 12.1387C90.6094 11.9824 90.5508 11.8027 90.5508 11.5996C90.5508 11.3652 90.6152 11.1602 90.7441 10.9844C90.877 10.8047 91.0781 10.6328 91.3477 10.4688C91.0117 10.332 90.7383 10.1016 90.5273 9.77734C90.3203 9.44922 90.2168 9.06836 90.2168 8.63477C90.2168 8.17383 90.3125 7.78125 90.5039 7.45703C90.6953 7.12891 90.9727 6.87891 91.3359 6.70703C91.6992 6.53516 92.1387 6.44922 92.6543 6.44922C92.7676 6.44922 92.8809 6.45508 92.9941 6.4668C93.1113 6.47461 93.2227 6.48828 93.3281 6.50781C93.4336 6.52344 93.5254 6.54297 93.6035 6.56641H95.8066V7.19336L94.623 7.33984C94.7402 7.49219 94.8379 7.67578 94.916 7.89062C94.9941 8.10547 95.0332 8.34375 95.0332 8.60547C95.0332 9.24609 94.8164 9.75586 94.3828 10.1348C93.9492 10.5098 93.3535 10.6973 92.5957 10.6973C92.416 10.6973 92.2324 10.6816 92.0449 10.6504C91.8535 10.7559 91.707 10.873 91.6055 11.002C91.5078 11.1309 91.459 11.2793 91.459 11.4473C91.459 11.5723 91.4961 11.6719 91.5703 11.7461C91.6484 11.8203 91.7598 11.875 91.9043 11.9102C92.0488 11.9414 92.2227 11.957 92.4258 11.957H93.5566C94.2559 11.957 94.791 12.1035 95.1621 12.3965C95.5371 12.6895 95.7246 13.1172 95.7246 13.6797C95.7246 14.3906 95.4355 14.9355 94.8574 15.3145C94.2793 15.6934 93.4434 15.8828 92.3496 15.8828ZM92.3789 15.1211C92.9102 15.1211 93.3496 15.0664 93.6973 14.957C94.0488 14.8516 94.3105 14.6973 94.4824 14.4941C94.6582 14.2949 94.7461 14.0566 94.7461 13.7793C94.7461 13.5215 94.6875 13.3262 94.5703 13.1934C94.4531 13.0645 94.2812 12.9785 94.0547 12.9355C93.8281 12.8887 93.5508 12.8652 93.2227 12.8652H92.1094C91.8203 12.8652 91.5684 12.9102 91.3535 13C91.1387 13.0898 90.9727 13.2227 90.8555 13.3984C90.7422 13.5742 90.6855 13.793 90.6855 14.0547C90.6855 14.4023 90.832 14.666 91.125 14.8457C91.418 15.0293 91.8359 15.1211 92.3789 15.1211ZM92.6309 9.98828C93.0957 9.98828 93.4453 9.87109 93.6797 9.63672C93.9141 9.40234 94.0312 9.06055 94.0312 8.61133C94.0312 8.13086 93.9121 7.77148 93.6738 7.5332C93.4355 7.29102 93.084 7.16992 92.6191 7.16992C92.1738 7.16992 91.8301 7.29492 91.5879 7.54492C91.3496 7.79102 91.2305 8.15234 91.2305 8.62891C91.2305 9.06641 91.3516 9.40234 91.5938 9.63672C91.8359 9.87109 92.1816 9.98828 92.6309 9.98828ZM99.4746 6.47266C100.24 6.47266 100.809 6.64453 101.18 6.98828C101.551 7.33203 101.736 7.88086 101.736 8.63477V13H101.027L100.84 12.0508H100.793C100.613 12.2852 100.426 12.4824 100.23 12.6426C100.035 12.7988 99.8086 12.918 99.5508 13C99.2969 13.0781 98.9844 13.1172 98.6133 13.1172C98.2227 13.1172 97.875 13.0488 97.5703 12.9121C97.2695 12.7754 97.0312 12.5684 96.8555 12.291C96.6836 12.0137 96.5977 11.6621 96.5977 11.2363C96.5977 10.5957 96.8516 10.1035 97.3594 9.75977C97.8672 9.41602 98.6406 9.22852 99.6797 9.19727L100.787 9.15039V8.75781C100.787 8.20312 100.668 7.81445 100.43 7.5918C100.191 7.36914 99.8555 7.25781 99.4219 7.25781C99.0859 7.25781 98.7656 7.30664 98.4609 7.4043C98.1562 7.50195 97.8672 7.61719 97.5938 7.75L97.2949 7.01172C97.584 6.86328 97.916 6.73633 98.291 6.63086C98.666 6.52539 99.0605 6.47266 99.4746 6.47266ZM100.775 9.83594L99.7969 9.87695C98.9961 9.9082 98.4316 10.0391 98.1035 10.2695C97.7754 10.5 97.6113 10.8262 97.6113 11.248C97.6113 11.6152 97.7227 11.8867 97.9453 12.0625C98.168 12.2383 98.4629 12.3262 98.8301 12.3262C99.4004 12.3262 99.8672 12.168 100.23 11.8516C100.594 11.5352 100.775 11.0605 100.775 10.4277V9.83594ZM105.814 12.3203C105.975 12.3203 106.139 12.3066 106.307 12.2793C106.475 12.252 106.611 12.2188 106.717 12.1797V12.9355C106.604 12.9863 106.445 13.0293 106.242 13.0645C106.043 13.0996 105.848 13.1172 105.656 13.1172C105.316 13.1172 105.008 13.0586 104.73 12.9414C104.453 12.8203 104.23 12.6172 104.062 12.332C103.898 12.0469 103.816 11.6523 103.816 11.1484V7.33984H102.902V6.86523L103.822 6.48438L104.209 5.08984H104.795V6.57812H106.676V7.33984H104.795V11.1191C104.795 11.5215 104.887 11.8223 105.07 12.0215C105.258 12.2207 105.506 12.3203 105.814 12.3203ZM113.555 9.77734C113.555 10.3047 113.486 10.7754 113.35 11.1895C113.213 11.6035 113.016 11.9531 112.758 12.2383C112.5 12.5234 112.188 12.7422 111.82 12.8945C111.457 13.043 111.045 13.1172 110.584 13.1172C110.154 13.1172 109.76 13.043 109.4 12.8945C109.045 12.7422 108.736 12.5234 108.475 12.2383C108.217 11.9531 108.016 11.6035 107.871 11.1895C107.73 10.7754 107.66 10.3047 107.66 9.77734C107.66 9.07422 107.779 8.47656 108.018 7.98438C108.256 7.48828 108.596 7.11133 109.037 6.85352C109.482 6.5918 110.012 6.46094 110.625 6.46094C111.211 6.46094 111.723 6.5918 112.16 6.85352C112.602 7.11523 112.943 7.49414 113.186 7.99023C113.432 8.48242 113.555 9.07812 113.555 9.77734ZM108.668 9.77734C108.668 10.293 108.736 10.7402 108.873 11.1191C109.01 11.498 109.221 11.791 109.506 11.998C109.791 12.2051 110.158 12.3086 110.607 12.3086C111.053 12.3086 111.418 12.2051 111.703 11.998C111.992 11.791 112.205 11.498 112.342 11.1191C112.479 10.7402 112.547 10.293 112.547 9.77734C112.547 9.26562 112.479 8.82422 112.342 8.45312C112.205 8.07812 111.994 7.78906 111.709 7.58594C111.424 7.38281 111.055 7.28125 110.602 7.28125C109.934 7.28125 109.443 7.50195 109.131 7.94336C108.822 8.38477 108.668 8.99609 108.668 9.77734ZM112.307 3.80664V3.92383C112.229 4.03711 112.121 4.17383 111.984 4.33398C111.852 4.49023 111.703 4.65625 111.539 4.83203C111.375 5.00391 111.209 5.16797 111.041 5.32422C110.877 5.48047 110.725 5.61523 110.584 5.72852H109.934V5.58789C110.059 5.43945 110.195 5.26172 110.344 5.05469C110.492 4.84375 110.637 4.62891 110.777 4.41016C110.918 4.1875 111.035 3.98633 111.129 3.80664H112.307ZM118.154 6.46094C118.283 6.46094 118.418 6.46875 118.559 6.48438C118.699 6.49609 118.824 6.51367 118.934 6.53711L118.811 7.43945C118.705 7.41211 118.588 7.39062 118.459 7.375C118.33 7.35938 118.209 7.35156 118.096 7.35156C117.838 7.35156 117.594 7.4043 117.363 7.50977C117.137 7.61133 116.938 7.75977 116.766 7.95508C116.594 8.14648 116.459 8.37891 116.361 8.65234C116.264 8.92188 116.215 9.22266 116.215 9.55469V13H115.236V6.57812H116.045L116.15 7.76172H116.191C116.324 7.52344 116.484 7.30664 116.672 7.11133C116.859 6.91211 117.076 6.75391 117.322 6.63672C117.572 6.51953 117.85 6.46094 118.154 6.46094ZM121.119 6.57812V13H120.146V6.57812H121.119ZM120.645 4.17578C120.805 4.17578 120.941 4.22852 121.055 4.33398C121.172 4.43555 121.23 4.5957 121.23 4.81445C121.23 5.0293 121.172 5.18945 121.055 5.29492C120.941 5.40039 120.805 5.45312 120.645 5.45312C120.477 5.45312 120.336 5.40039 120.223 5.29492C120.113 5.18945 120.059 5.0293 120.059 4.81445C120.059 4.5957 120.113 4.43555 120.223 4.33398C120.336 4.22852 120.477 4.17578 120.645 4.17578ZM128.719 9.77734C128.719 10.3047 128.65 10.7754 128.514 11.1895C128.377 11.6035 128.18 11.9531 127.922 12.2383C127.664 12.5234 127.352 12.7422 126.984 12.8945C126.621 13.043 126.209 13.1172 125.748 13.1172C125.318 13.1172 124.924 13.043 124.564 12.8945C124.209 12.7422 123.9 12.5234 123.639 12.2383C123.381 11.9531 123.18 11.6035 123.035 11.1895C122.895 10.7754 122.824 10.3047 122.824 9.77734C122.824 9.07422 122.943 8.47656 123.182 7.98438C123.42 7.48828 123.76 7.11133 124.201 6.85352C124.646 6.5918 125.176 6.46094 125.789 6.46094C126.375 6.46094 126.887 6.5918 127.324 6.85352C127.766 7.11523 128.107 7.49414 128.35 7.99023C128.596 8.48242 128.719 9.07812 128.719 9.77734ZM123.832 9.77734C123.832 10.293 123.9 10.7402 124.037 11.1191C124.174 11.498 124.385 11.791 124.67 11.998C124.955 12.2051 125.322 12.3086 125.771 12.3086C126.217 12.3086 126.582 12.2051 126.867 11.998C127.156 11.791 127.369 11.498 127.506 11.1191C127.643 10.7402 127.711 10.293 127.711 9.77734C127.711 9.26562 127.643 8.82422 127.506 8.45312C127.369 8.07812 127.158 7.78906 126.873 7.58594C126.588 7.38281 126.219 7.28125 125.766 7.28125C125.098 7.28125 124.607 7.50195 124.295 7.94336C123.986 8.38477 123.832 8.99609 123.832 9.77734Z" fill="#FF5959"/>
<defs>
<clipPath id="clip0_4184_255">
<rect width="16" height="16" fill="white"/>
</clipPath>
</defs>
</svg>
